<svg xmlns="http://www.w3.org/2000/svg" viewBox="0 0 131.831 15"><defs><style>.a{fill:#8c8c8c;}</style></defs><path class="a" d="M98.953,13.434H91.275a5.934,5.934,0,0,1,0-11.868h7.678a5.934,5.934,0,0,1,0,11.868ZM91.275,5.408a2.092,2.092,0,0,0,0,4.184h7.679a2.092,2.092,0,0,0,0-4.184Z"/><path class="a" d="M7.482,0A7.5,7.5,0,0,0,0,7l0,.006H0L4.032,8.664a2.078,2.078,0,0,1,1.23-.341L7.1,5.658V5.621A2.848,2.848,0,1,1,9.944,8.474H9.88L7.254,10.349a2.078,2.078,0,0,1-4.107.508L.308,9.686A7.5,7.5,0,1,0,7.482,0Z"/><path class="a" d="M4.659,11.484,3.732,11.1a1.605,1.605,0,1,0,.877-2.2l.959.4a1.183,1.183,0,0,1-.909,2.184Z"/><path class="a" d="M11.842,5.62a1.9,1.9,0,1,0-1.9,1.9A1.9,1.9,0,0,0,11.842,5.62Zm-3.32,0A1.426,1.426,0,1,1,9.947,7.045,1.427,1.427,0,0,1,8.522,5.617Z"/><path class="a" d="M34.226,0V13.985L37.378,15V3.259c0-.549.258-.908.651-.788s.617.65.617,1.2V8.348c1.971.959,3.426,0,3.426-2.518s-.822-3.718-3.5-4.625A39.021,39.021,0,0,0,34.226,0"/><path class="a" d="M37.98,12.94l5.139-1.713c.582-.223.668-.514.2-.668a3.422,3.422,0,0,0-1.9.1L38,11.861V9.874H38.2a11.759,11.759,0,0,1,2.347-.5,10.056,10.056,0,0,1,4.386.514c1.507.479,1.713,1.165,1.285,1.713a3.616,3.616,0,0,1-1.3.822l-6.852,2.485"/><path class="a" d="M28.418,12.752c-1.456-.429-1.782-1.32-1.08-1.851a6.861,6.861,0,0,1,1.713-.822l4.541-1.713v1.919l-3.2,1.181c-.582.206-.668.5-.205.651A3.426,3.426,0,0,0,32.1,12l1.576-.565v1.713h-.326a10.127,10.127,0,0,1-4.933-.394"/><path class="a" d="M119.178,4.507a1.4,1.4,0,1,1,1.4,1.4h0a1.4,1.4,0,0,1-1.4-1.4Zm3.681-3.292h-2.181a2.656,2.656,0,0,0-2.639,2.639V11.16a2.657,2.657,0,0,0,2.639,2.639h2.181Zm1.1,13.778h-3.278a3.847,3.847,0,0,1-3.847-3.847h0V3.854A3.847,3.847,0,0,1,120.678.007h3.278a.119.119,0,0,1,.111.111h0V14.882a.11.11,0,0,1-.108.111Zm4.583-8.25a1.514,1.514,0,1,0,1.514,1.514h0a1.517,1.517,0,0,0-1.514-1.514Zm-.555,8.25h-2.306a.119.119,0,0,1-.111-.111h0V.1a.1.1,0,0,1,.093-.1h2.324a3.847,3.847,0,0,1,3.847,3.847h0V11.16a3.835,3.835,0,0,1-3.837,3.833Z"/><path class="a" d="M65.907,6.015h0c2.26,1.719,6.09,5.94,4.931,7.136a7.5,7.5,0,0,1-9.863,0c-1.177-1.2,2.671-5.417,4.913-7.117a.018.018,0,0,1,.017-.019Zm3.9-4.913A7.466,7.466,0,0,0,62,1.1c-.019,0-.019.019-.019.037s.019.019.037.019c1.457-.317,3.662.934,3.867,1.065h.037c.206-.131,2.41-1.382,3.867-1.065.019,0,.037,0,.037-.019s0-.037-.018-.037ZM60.658,2.148c-.019,0-.019.019-.038.019a7.513,7.513,0,0,0-.672,9.863c0,.019.019.019.037.019s.019-.019,0-.038c-.579-1.774,2.354-6.052,3.867-7.845l.019-.019c0-.019,0-.019-.019-.019C61.554,1.849,60.788,2.092,60.658,2.148Zm7.3,1.961-.019.019a.019.019,0,0,0,.018.019h0c1.513,1.793,4.427,6.071,3.866,7.846v.037c.019,0,.038,0,.038-.019a7.489,7.489,0,0,0-.691-9.863c-.019-.019-.019-.019-.038-.019-.112-.037-.878-.28-3.175,1.98Z"/></svg>