<svg xmlns="http://www.w3.org/2000/svg" viewBox="0 0 14.983 15"><defs><style>.a{fill:#8c8c8c;}</style></defs><path class="a" d="M7.482,0A7.5,7.5,0,0,0,0,7l0,.006H0L4.032,8.664a2.078,2.078,0,0,1,1.23-.341L7.1,5.658V5.621A2.848,2.848,0,1,1,9.944,8.474H9.88L7.254,10.349a2.078,2.078,0,0,1-4.107.508L.308,9.686A7.5,7.5,0,1,0,7.482,0Z"/><path class="a" d="M4.659,11.484,3.732,11.1a1.605,1.605,0,1,0,.877-2.2l.959.4a1.183,1.183,0,0,1-.909,2.184Z"/><path class="a" d="M11.842,5.62a1.9,1.9,0,1,0-1.9,1.9A1.9,1.9,0,0,0,11.842,5.62Zm-3.32,0A1.426,1.426,0,1,1,9.947,7.045,1.427,1.427,0,0,1,8.522,5.617Z"/></svg>